<svg xmlns="http://www.w3.org/2000/svg" width="512" height="512" viewBox="0 0 512 512"><style>.a{fill:#479CBE;}.b{fill:#235971;}</style><path d="M161.6 266.7l21.4-134.8c-8.4 0-22.9 0-22.9 0 -10.7 0-24.5-6-28.5-17 -1.3-3.7-4.4-16.5 13.3-29 6.3-4.4 10.4-9.2 11.2-13 0.8-3.9-0.2-7.3-2.9-9.9 -3.9-3.7-11.5-5.8-21.2-5.8 -16.4 0-27.9 9.4-29 16.2 -0.8 5 3.1 9.1 6.5 11.7 10.2 7.6 12.6 18.6 6.3 29 -6.5 10.7-20.6 17.7-35.7 17.8 0 0-14.9 0-23.3 0 -1.9 13.1-33.7 214.4-36.1 230.3H147.2c1.1-7.1 7-45.2 14.9-95.5H161.6L161.6 266.7z" class="a"/><path d="M331.1 13.9H202.3l-17.2 109.1h21.9c12 0 23.3-5.5 28.2-13.5 1.6-2.6 2.3-4.9 2.3-7 0-4.5-3.1-7.9-6.2-10.2 -8.4-6.3-10.2-13-10.2-17.7 0-1 0-1.8 0.2-2.6 1.8-11.5 17.3-24 37.9-24 12.3 0 21.7 2.9 27.4 8.3 5 4.7 7 11.3 5.5 18.3 -1.8 8.3-10 15.1-14.7 18.5 -12.5 8.8-10.9 16.4-10.1 18.6 2.6 6.8 12.5 11.2 20.1 11.2h33.2c0 0 0 0 0 0.2 45.4 0.3 69.7 21.2 62.1 69.9 -7.1 45.2-41.8 64.7-83.1 65l-16.4 104.4h24.1c101.9 0 185.2-65.5 201.6-168.9C529.2 65.1 447.8 13.9 331.1 13.9z" fill="#00A5C3"/><path d="M331.1 13.9H202.3l-17.2 109.1h21.9c12 0 23.3-5.5 28.2-13.5 1.6-2.6 2.3-4.9 2.3-7 0-4.5-3.1-7.9-6.2-10.2 -8.4-6.3-10.2-13-10.2-17.7 0-1 0-1.8 0.2-2.6 1.8-11.5 17.3-24 37.9-24 12.3 0 21.7 2.9 27.4 8.3 5 4.7 7 11.3 5.5 18.3 -1.8 8.3-10 15.1-14.7 18.5 -12.5 8.8-10.9 16.4-10.1 18.6 2.6 6.8 12.5 11.2 20.1 11.2h33.2c0 0 0 0 0 0.2 45.4 0.3 69.7 21.2 62.1 69.9 -7.1 45.2-41.8 64.7-83.1 65l-16.4 104.4h24.1c101.9 0 185.2-65.5 201.6-168.9C529.2 65.1 447.8 13.9 331.1 13.9z" class="b"/><path d="M13.8 408.7h51.7c22 0 27.4 11.2 25.8 21.4 -1.3 8.3-7 14.4-16.7 18.5 12.3 4.7 17.2 12 15.4 23.5 -2.3 14.4-14.7 25.1-31.1 25.1H0L13.8 408.7zM48 445.3c10 0 14.7-5.3 15.7-11.7 1-6.8-2.1-11.5-12.2-11.5h-8.9l-3.6 23.2H48zM42.5 483.5c10.4 0 16.4-4.2 17.8-12.8 1.1-7.5-3.1-11.8-13.1-11.8H37l-3.9 24.8h9.4V483.5z" class="b"/><path d="M162.4 497.8c-13.5 1-19.9-0.5-23.2-6.3 -7.1 4.4-15.1 6.6-23.5 6.6 -15.2 0-20.6-7.9-19.1-16.7 0.6-4.2 3.1-8.3 7-11.7 8.4-7.3 29.2-8.3 37.3-13.8 0.6-6.2-1.8-8.4-9.4-8.4 -8.9 0-16.4 2.9-29.2 11.7l3.1-20.1c11-7.9 21.7-11.7 34-11.7 15.7 0 29.7 6.5 27.1 23.7l-3.1 19.4c-1.1 6.8-0.8 8.9 6.8 9.1L162.4 497.8zM139.1 467.3c-7.1 4.5-20.4 3.7-21.9 13.1 -0.6 4.4 2.1 7.6 6.5 7.6 4.2 0 9.4-1.8 13.6-4.7 -0.3-1.6-0.2-3.2 0.3-6.3L139.1 467.3z" class="b"/><path d="M187.5 428.6h26.9l-1.5 8.9c8.6-7.3 15.1-10 23.5-10 15.1 0 22 9.2 19.6 24.3l-7 45.2h-26.9l5.8-37.4c1.1-6.8-1-10-6.2-10 -4.2 0-8.1 2.3-11.8 7.3l-6.2 40H177L187.5 428.6z" class="b"/><path d="M277 408.7h26.9l-6.8 43.4 25.8-23.5h33.2l-33.1 29.2 26.6 39.2h-33.9l-20.4-31.6h-0.3l-4.9 31.6h-26.9L277 408.7z" class="b"/><path d="M372.3 408.7h31l-13.6 88.3h-31L372.3 408.7z" class="a"/><path d="M418.3 408.7h44.2c34.2 0 44.1 24.8 40.8 45.4 -3.1 20.1-19 42.9-48.9 42.9h-49.9L418.3 408.7zM447 475.9c15.1 0 23.3-7.5 25.8-23.2 1.8-11.7-1.8-23.2-18.5-23.2h-8.3l-7.1 46.4H447z" class="a"/></svg>